<?xml version="1.0" encoding="utf-8"?>
<!-- Generator: Adobe Illustrator 19.2.0, SVG Export Plug-In . SVG Version: 6.00 Build 0)  -->
<svg version="1.1" id="Layer_1" xmlns="http://www.w3.org/2000/svg" xmlns:xlink="http://www.w3.org/1999/xlink" x="0px" y="0px"
	 viewBox="0 0 10.3 8.6" style="enable-background:new 0 0 10.3 8.6;" xml:space="preserve">
<style type="text/css">
	.st0{fill:#FFFFFF;}
</style>
<g>
	<path class="st0" d="M10.3,0.4v0.9c0,0.1,0,0.2-0.1,0.3C10.1,1.7,10,1.7,9.9,1.7H0.4c-0.1,0-0.2,0-0.3-0.1C0,1.5,0,1.4,0,1.3V0.4
		c0-0.1,0-0.2,0.1-0.3C0.2,0,0.3,0,0.4,0h9.4c0.1,0,0.2,0,0.3,0.1C10.2,0.2,10.3,0.3,10.3,0.4z M10.3,3.9v0.9c0,0.1,0,0.2-0.1,0.3
		C10.1,5.1,10,5.1,9.9,5.1H0.4c-0.1,0-0.2,0-0.3-0.1C0,4.9,0,4.8,0,4.7V3.9c0-0.1,0-0.2,0.1-0.3c0.1-0.1,0.2-0.1,0.3-0.1h9.4
		c0.1,0,0.2,0,0.3,0.1C10.2,3.6,10.3,3.7,10.3,3.9z M10.3,7.3v0.9c0,0.1,0,0.2-0.1,0.3C10.1,8.5,10,8.6,9.9,8.6H0.4
		c-0.1,0-0.2,0-0.3-0.1C0,8.4,0,8.3,0,8.1V7.3C0,7.2,0,7.1,0.1,7c0.1-0.1,0.2-0.1,0.3-0.1h9.4c0.1,0,0.2,0,0.3,0.1
		C10.2,7.1,10.3,7.2,10.3,7.3z"/>
</g>
</svg>
