<?xml version="1.0" encoding="utf-8"?>
<!-- Generator: Adobe Illustrator 19.2.0, SVG Export Plug-In . SVG Version: 6.00 Build 0)  -->
<svg version="1.1" id="Layer_1" xmlns="http://www.w3.org/2000/svg" xmlns:xlink="http://www.w3.org/1999/xlink" x="0px" y="0px"
	 viewBox="0 0 13.5 16" style="enable-background:new 0 0 13.5 16;" xml:space="preserve">
<style type="text/css">
	.st0{fill:#FFFFFF;}
</style>
<g>
	<path class="st0" d="M12.3,0c0.2,0,0.3,0,0.5,0.1c0.2,0.1,0.4,0.2,0.6,0.4c0.1,0.2,0.2,0.4,0.2,0.7v13.6c0,0.2-0.1,0.5-0.2,0.7
		c-0.1,0.2-0.3,0.3-0.6,0.4C12.6,16,12.5,16,12.3,16c-0.3,0-0.6-0.1-0.9-0.3l-4.7-4.5l-4.7,4.5C1.9,15.9,1.6,16,1.2,16
		c-0.2,0-0.3,0-0.5-0.1c-0.2-0.1-0.4-0.2-0.6-0.4C0.1,15.3,0,15.1,0,14.8V1.2c0-0.2,0.1-0.5,0.2-0.7s0.3-0.3,0.6-0.4
		C0.9,0,1.1,0,1.2,0H12.3z"/>
</g>
</svg>
