<?xml version="1.0" encoding="utf-8"?>
<!-- Generator: Adobe Illustrator 18.0.0, SVG Export Plug-In . SVG Version: 6.00 Build 0)  -->
<!DOCTYPE svg PUBLIC "-//W3C//DTD SVG 1.1//EN" "http://www.w3.org/Graphics/SVG/1.1/DTD/svg11.dtd">
<svg version="1.1" id="Layer_1" xmlns="http://www.w3.org/2000/svg" xmlns:xlink="http://www.w3.org/1999/xlink" x="0px" y="0px"
	 viewBox="0 0 100 33.7" enable-background="new 0 0 100 33.7" xml:space="preserve">
<polygon fill="#FFFFFF" points="74.7,0 71.7,8.3 76.3,8.3 77.4,5.1 81.9,5.1 81.9,27.9 79.4,27.9 77.5,33 90.2,33 92.1,27.9 
	88.5,27.9 88.5,5.1 93.8,5.1 93.8,8.3 97,8.3 100,0 "/>
<path fill="#FFFFFF" d="M23.8,0l-1.9,5.1l3.2,0v14.9c0,2.7-0.5,4.3-1.8,5.6c-1.1,1.1-2.8,1.7-4.7,1.7c-2.2,0-4.2-0.7-5.5-2
	c-1.3-1.2-1.9-3.3-1.9-6.3l0-19.1L1.9,0L0,5.2l4,0v14.2c0,13.3,10.4,14.4,13.6,14.4c8.2,0,13.6-5.3,13.6-13.6l0-15h2.4L35.4,0H23.8z
	"/>
<path fill="#FFFFFF" d="M68.8,5.1l0,27.9l-3.9,0c0,0-18.1-19.1-19.3-20.4c0,2.7,0,15.3,0,15.3h3.6l-1.9,5.2H35.6l1.9-5.2h2V5.2h-4.3
	L37,0h7.2c0,0,13.9,14.5,18.7,19.5c0-1.6,0-14.4,0-14.4h-3.5L61.2,0h12l-1.9,5.2L68.8,5.1z"/>
<g>
	<path fill="#FFFFFF" stroke="#FFFFFF" stroke-width="5.423000e-02" stroke-miterlimit="10" d="M100,7.2c0,0.6-0.5,1.1-1.1,1.1
		c-0.6,0-1.1-0.5-1.1-1.1c0-0.6,0.5-1.1,1.1-1.1C99.5,6,100,6.5,100,7.2z M97.8,7.2c0,0.6,0.4,1,1,1c0.6,0,1-0.5,1-1
		c0-0.6-0.4-1-1-1C98.3,6.1,97.8,6.6,97.8,7.2z M98.4,6.5H99c0.3,0,0.4,0.1,0.4,0.4c0,0.2-0.2,0.3-0.3,0.4l0.4,0.6h-0.1l-0.4-0.6
		h-0.4v0.6h-0.1V6.5z M98.6,7.1h0.3c0.2,0,0.4,0,0.4-0.3c0-0.2-0.2-0.3-0.3-0.3h-0.4V7.1z"/>
</g>
</svg>
